<?xml version="1.0" encoding="UTF-8"?>
<svg version="1.1" xmlns="http://www.w3.org/2000/svg" width="1024" height="1024">
<path d="M0 0 C0.86697046 -0.00226556 1.73394091 -0.00453111 2.6271832 -0.00686532 C5.53892417 -0.0132061 8.4506186 -0.01237582 11.36236572 -0.0115509 C13.44893962 -0.01454291 15.53551296 -0.01794553 17.62208557 -0.02172852 C23.30357115 -0.03058241 28.98504166 -0.0329076 34.66653347 -0.0335443 C38.22873274 -0.03425562 41.7909282 -0.03639182 45.35312653 -0.03904152 C57.81958762 -0.0483093 70.28603802 -0.05237584 82.75250244 -0.05158997 C94.30130192 -0.05099327 105.85005407 -0.06146044 117.39884162 -0.07733363 C127.35518094 -0.09052102 137.31150506 -0.09576901 147.26785302 -0.09513456 C153.1944318 -0.09488223 159.1209688 -0.09758224 165.04753876 -0.10831261 C237.55353851 -0.23021508 237.55353851 -0.23021508 259.49615479 6.13371277 C260.54633789 6.43487 260.54633789 6.43487 261.61773682 6.74211121 C278.96516923 11.898275 294.68866957 20.4855043 308.49615479 32.13371277 C309.23994385 32.72668152 309.98373291 33.31965027 310.75006104 33.93058777 C333.64057584 52.74470953 346.96483463 84.80496448 350.21490479 113.68058777 C353.55612792 158.61575535 341.97991382 202.17616832 314.49615479 238.13371277 C313.51195557 239.43695496 313.51195557 239.43695496 312.50787354 240.76652527 C281.5400511 280.64641255 237.94399238 302.96421291 188.29302979 309.91886902 C184.03595484 310.44176036 179.77422745 310.83174132 175.49615479 311.13371277 C174.43098633 311.21331238 173.36581787 311.29291199 172.26837158 311.37492371 C162.45359875 312.07509579 152.64419858 312.50773861 142.80865479 312.75871277 C141.93970581 312.78150299 141.07075684 312.80429321 140.17547607 312.82777405 C104.30307637 313.70136988 68.3685478 312.68791577 32.49615479 312.13371277 C32.37285797 313.27648178 32.24956116 314.41925079 32.12252808 315.59664917 C31.56058181 320.06866154 30.57931779 324.36165412 29.47418213 328.72673035 C29.2707016 329.54593964 29.06722107 330.36514893 28.85757446 331.20918274 C28.18751484 333.90017432 27.51028896 336.58929247 26.83209229 339.27824402 C26.35692953 341.17182556 25.88188483 343.06543673 25.4069519 344.95907593 C24.41004214 348.92824503 23.40911059 352.89637595 22.40582275 356.86393738 C21.13494404 361.8925564 19.87793938 366.92452632 18.62459373 371.95753956 C17.64675835 375.87443695 16.65930252 379.78886529 15.66936111 383.70271873 C15.20283555 385.55339607 14.73959315 387.40490487 14.28001022 389.2573185 C8.47286223 412.62365656 0.97631137 433.40463443 -14.50384521 452.13371277 C-15.23603271 453.02058777 -15.96822021 453.90746277 -16.72259521 454.82121277 C-33.95919666 474.80567821 -58.71201539 488.71824903 -84.50384521 494.13371277 C-85.19204346 494.28034363 -85.8802417 494.42697449 -86.58929443 494.57804871 C-106.24210431 498.53670437 -126.56471448 497.41939466 -146.50384521 497.13371277 C-147.77453066 494.59234188 -147.34916836 493.79934818 -146.64959717 491.08317566 C-146.43300949 490.22684036 -146.21642181 489.37050507 -145.99327087 488.48822021 C-145.62145439 487.06170387 -145.62145439 487.06170387 -145.24212646 485.60636902 C-144.98437943 484.59207321 -144.72663239 483.5777774 -144.46107483 482.53274536 C-143.88975683 480.28517413 -143.315495 478.03834979 -142.73876953 475.79216003 C-141.12612145 469.50546816 -139.53876578 463.21239914 -137.95306396 456.91886902 C-137.69451378 455.89386229 -137.69451378 455.89386229 -137.43074036 454.84814835 C-131.84450776 432.68407153 -126.5585439 410.44610918 -121.23190308 388.21856308 C-120.21140094 383.96091374 -119.18995317 379.70349188 -118.16790771 375.44621277 C-117.87165056 374.21184919 -117.87165056 374.21184919 -117.56940842 372.95254898 C-114.4945158 360.15025819 -111.34539804 347.36793981 -108.12741089 334.60087585 C-106.41495893 327.80602584 -104.74059417 321.00451554 -103.12734985 314.18537903 C-96.70068068 287.3531275 -86.02761164 262.2786215 -65.50384521 243.13371277 C-64.67884521 242.28808777 -63.85384521 241.44246277 -63.00384521 240.57121277 C-33.60565001 211.90797244 5.05624971 203.8182696 44.8381958 204.0677948 C46.30535722 204.07300619 47.77252052 204.07771057 49.23968506 204.08195496 C52.36606653 204.09179156 55.49241582 204.10459915 58.61877632 204.1196785 C63.57633894 204.14302171 68.53389789 204.15612661 73.49150085 204.16737366 C87.57765955 204.20058038 101.66375657 204.242389 115.74981689 204.30509949 C123.55486795 204.33976139 131.35987475 204.3634768 139.16499466 204.37530792 C144.07945547 204.3833398 148.99362162 204.40441559 153.90798771 204.43551278 C156.97881609 204.45166872 160.04956322 204.45493128 163.12042999 204.45474243 C164.52879396 204.45713674 165.93716136 204.46458593 167.34546471 204.47787094 C185.24714248 204.63951547 201.01958232 201.22324054 214.24615479 188.54777527 C225.98672573 175.95112103 232.44183641 158.95000041 232.93365479 141.75871277 C232.50111316 130.87059597 228.78687311 119.93693239 221.38287354 111.80558777 C211.4102047 102.96852305 200.44242768 102.98859628 187.80264282 102.97549438 C186.25849431 102.96808742 186.25849431 102.96808742 184.68315089 102.96053082 C181.25932948 102.94526367 177.83552666 102.93682465 174.41168213 102.9283905 C171.94718261 102.91880349 169.4826847 102.90879293 167.01818848 102.89839172 C161.72542232 102.87700257 156.43265853 102.85854133 151.1398735 102.84278679 C143.48754441 102.82000368 135.8352422 102.79187294 128.18293603 102.76246751 C115.76538154 102.71489458 103.347816 102.67160275 90.93023682 102.63102722 C78.87293642 102.59161971 66.81564581 102.55018103 54.75836182 102.50602722 C53.64217933 102.50194081 53.64217933 102.50194081 52.5034477 102.49777185 C48.77013611 102.48409151 45.03682466 102.47037141 41.30351329 102.45663154 C10.36774735 102.3428287 -20.56803914 102.23605556 -51.50384521 102.13371277 C-50.87456344 99.44218191 -50.24423818 96.75090239 -49.61332703 94.05975342 C-49.34917126 92.92919706 -49.34917126 92.92919706 -49.07967901 91.77580118 C-47.5084662 85.07995445 -45.79077402 78.42861174 -44.00775146 71.78605652 C-43.69232895 70.60507889 -43.37690643 69.42410126 -43.05192566 68.20733643 C-42.39192305 65.7393352 -41.73062597 63.2716798 -41.0680542 60.80436707 C-40.06766009 57.07611304 -39.07360849 53.34620661 -38.08001709 49.61613464 C-27.23721992 9.05545383 -27.23721992 9.05545383 -20.10540771 4.65324402 C-13.19374225 1.03526078 -7.77891731 -0.01485645 0 0 Z " fill="#00B9FD" transform="translate(408.50384521484375,262.8662872314453)"/>
<path d="M0 0 C0.86697046 -0.00226556 1.73394091 -0.00453111 2.6271832 -0.00686532 C5.53892417 -0.0132061 8.4506186 -0.01237582 11.36236572 -0.0115509 C13.44893962 -0.01454291 15.53551296 -0.01794553 17.62208557 -0.02172852 C23.30357115 -0.03058241 28.98504166 -0.0329076 34.66653347 -0.0335443 C38.22873274 -0.03425562 41.7909282 -0.03639182 45.35312653 -0.03904152 C57.81958762 -0.0483093 70.28603802 -0.05237584 82.75250244 -0.05158997 C94.30130192 -0.05099327 105.85005407 -0.06146044 117.39884162 -0.07733363 C127.35518094 -0.09052102 137.31150506 -0.09576901 147.26785302 -0.09513456 C153.1944318 -0.09488223 159.1209688 -0.09758224 165.04753876 -0.10831261 C237.55353851 -0.23021508 237.55353851 -0.23021508 259.49615479 6.13371277 C260.54633789 6.43487 260.54633789 6.43487 261.61773682 6.74211121 C278.96516923 11.898275 294.68866957 20.4855043 308.49615479 32.13371277 C309.23994385 32.72668152 309.98373291 33.31965027 310.75006104 33.93058777 C333.64057584 52.74470953 346.96483463 84.80496448 350.21490479 113.68058777 C352.125137 139.37076199 351.0389838 169.42541251 339.49615479 193.13371277 C338.83615479 193.46371277 338.17615479 193.79371277 337.49615479 194.13371277 C332.73665288 201.12299567 332.73665288 201.12299567 330.49615479 209.13371277 C329.50615479 209.13371277 328.51615479 209.13371277 327.49615479 209.13371277 C327.82615479 210.45371277 328.15615479 211.77371277 328.49615479 213.13371277 C327.83615479 213.13371277 327.17615479 213.13371277 326.49615479 213.13371277 C326.16615479 214.12371277 325.83615479 215.11371277 325.49615479 216.13371277 C324.83615479 215.80371277 324.17615479 215.47371277 323.49615479 215.13371277 C323.51355713 213.41861511 323.51355713 213.41861511 323.53131104 211.66886902 C323.54068766 210.17798523 323.549788 208.68709968 323.55865479 207.19621277 C323.56703369 206.44146667 323.5754126 205.68672058 323.58404541 204.90910339 C323.59267919 202.98376963 323.54839811 201.05835696 323.49615479 199.13371277 C323.16615479 198.80371277 322.83615479 198.47371277 322.49615479 198.13371277 C322.06997251 195.85101047 321.70481836 193.55676188 321.37115479 191.25871277 C321.18295166 190.00316589 320.99474854 188.74761902 320.80084229 187.45402527 C320.49615479 184.13371277 320.49615479 184.13371277 321.49615479 181.13371277 C320.83615479 180.80371277 320.17615479 180.47371277 319.49615479 180.13371277 C318.93365479 178.13761902 318.93365479 178.13761902 318.49615479 175.69621277 C317.87364316 171.99530879 317.87364316 171.99530879 315.49615479 169.13371277 C314.88794196 167.5252637 314.33317833 165.89636545 313.80865479 164.25871277 C310.20364233 154.0578627 304.33186311 145.43302774 297.49615479 137.13371277 C296.35146729 135.61777527 296.35146729 135.61777527 295.18365479 134.07121277 C277.37097769 114.60154246 249.21170814 104.95772029 223.49615479 103.13371277 C214.48209609 102.7606041 205.45563335 102.821991 196.43560791 102.81486511 C193.72391468 102.80663938 191.01223539 102.79546762 188.30055237 102.78442383 C182.4922385 102.76229094 176.68394182 102.74719429 170.87559509 102.73705673 C162.4779995 102.7223896 154.08046392 102.69683104 145.68290383 102.66872545 C132.05410112 102.62340231 118.42528971 102.58672811 104.79644775 102.55558777 C91.56759108 102.52534261 78.33875564 102.49096522 65.10992432 102.45109558 C63.884094 102.44740326 63.884094 102.44740326 62.63349944 102.44363634 C58.53320979 102.43126058 54.43292039 102.41880428 50.33263111 102.40630794 C16.38716793 102.30295725 -17.55831893 102.2136829 -51.50384521 102.13371277 C-50.87456344 99.44218191 -50.24423818 96.75090239 -49.61332703 94.05975342 C-49.34917126 92.92919706 -49.34917126 92.92919706 -49.07967901 91.77580118 C-47.5084662 85.07995445 -45.79077402 78.42861174 -44.00775146 71.78605652 C-43.53461769 70.01459007 -43.53461769 70.01459007 -43.05192566 68.20733643 C-42.39192305 65.7393352 -41.73062597 63.2716798 -41.0680542 60.80436707 C-40.06766009 57.07611304 -39.07360849 53.34620661 -38.08001709 49.61613464 C-27.23721992 9.05545383 -27.23721992 9.05545383 -20.10540771 4.65324402 C-13.19374225 1.03526078 -7.77891731 -0.01485645 0 0 Z " fill="#08E4FA" transform="translate(408.50384521484375,262.8662872314453)"/>
<path d="M0 0 C-0.57355671 6.07263653 -1.51963979 11.80087389 -3.02197266 17.70654297 C-3.22545319 18.52589828 -3.42893372 19.3452536 -3.63858032 20.18943787 C-4.3075312 22.87528508 -4.98529056 25.55880675 -5.6640625 28.2421875 C-6.13932932 30.13431364 -6.61437205 32.02649609 -7.08920288 33.91873169 C-8.08541829 37.88210482 -9.08637812 41.84424445 -10.09033203 45.80566406 C-11.36200336 50.82621116 -12.61882813 55.85033785 -13.87156105 60.87563896 C-14.84931303 64.78826862 -15.83677533 68.69840248 -16.82679367 72.60794449 C-17.29324448 74.45584832 -17.75648522 76.30456611 -18.21614456 78.15417099 C-24.03051439 101.50640885 -31.52755703 122.28025419 -47 141 C-47.7321875 141.886875 -48.464375 142.77375 -49.21875 143.6875 C-66.45535145 163.67196544 -91.20817017 177.58453626 -117 183 C-118.03229736 183.21994629 -118.03229736 183.21994629 -119.08544922 183.44433594 C-138.7382591 187.4029916 -159.06086927 186.28568189 -179 186 C-180.33003105 183.3399379 -179.74797189 182.27111913 -179.01879883 179.40991211 C-178.77675217 178.44536606 -178.53470551 177.48082001 -178.2853241 176.48704529 C-178.01198746 175.42784378 -177.73865082 174.36864227 -177.45703125 173.27734375 C-177.17704788 172.16863419 -176.89706451 171.05992462 -176.6085968 169.9176178 C-175.68274653 166.25598165 -174.74747296 162.59681627 -173.8125 158.9375 C-172.68621786 154.49178227 -171.56345136 150.04518 -170.44085693 145.59852982 C-169.9460016 143.63960844 -169.45025405 141.68091456 -168.9543457 139.72225952 C-165.60846221 126.49850887 -162.35846987 113.25162939 -159.125 100 C-158.6026591 97.86188834 -158.08028062 95.72378586 -157.55786133 93.58569336 C-156.37042387 88.72415645 -155.18463975 83.86221936 -154 79 C-153.67 79 -153.34 79 -153 79 C-153.63002423 86.46578707 -155.18752766 93.48855024 -157 100.75 C-157.46829793 102.65674769 -157.93658363 104.56349841 -158.40444946 106.47035217 C-158.90948646 108.52542876 -159.4170256 110.57987672 -159.92480469 112.63427734 C-161.05853334 117.22847103 -162.17495281 121.82679627 -163.2890625 126.42578125 C-163.67845653 128.03239181 -164.06786085 129.63899988 -164.45727539 131.24560547 C-164.74660446 132.4393277 -164.74660446 132.4393277 -165.04177856 133.65716553 C-170.76503607 157.26114807 -170.76503607 157.26114807 -173.68017578 168.50805664 C-174.42557051 171.42757524 -175 173.97214637 -175 177 C-170.711869 171.82991298 -167.60163612 166.49784782 -164.69140625 160.45703125 C-162.75756934 156.50450085 -160.70079528 152.62921108 -158.625 148.75 C-155.65686933 143.1887127 -152.7856218 137.59218708 -150 131.9375 C-138.57564798 108.97695698 -124.741683 87.46228448 -108 68 C-107.32582031 67.19691406 -106.65164063 66.39382813 -105.95703125 65.56640625 C-101.58496562 60.43398138 -96.80257111 55.72620514 -92 51 C-90.79150391 49.78570313 -90.79150391 49.78570313 -89.55859375 48.546875 C-67.26398999 26.35438393 -33.14014958 -0.63731057 0 0 Z " fill="#0090FD" transform="translate(441,574)"/>
<path d="M0 0 C0.88138146 -0.00085442 1.76276291 -0.00170885 2.6708529 -0.00258917 C5.62964921 -0.0042387 8.58838907 0.00126884 11.54718018 0.00672913 C13.66596983 0.00701114 15.78475959 0.00685299 17.90354919 0.00628662 C23.66140169 0.00599919 29.41923344 0.0118872 35.17708111 0.01886058 C41.19223107 0.02510311 47.20738148 0.02569863 53.22253418 0.02688599 C64.61572225 0.02999664 76.00890074 0.03820646 87.40208459 0.04823548 C100.37169957 0.05940484 113.341315 0.06490914 126.31093359 0.06993091 C152.99287787 0.08038928 179.67481364 0.0979836 206.35675049 0.12025452 C206.35675049 0.45025452 206.35675049 0.78025452 206.35675049 1.12025452 C205.60799274 1.12448646 204.859235 1.1287184 204.08778763 1.13307858 C185.87711958 1.23633907 167.66649083 1.34496995 149.45589066 1.45959377 C140.64941991 1.51489495 131.84294512 1.56837187 123.03643799 1.61756897 C115.3615723 1.66044883 107.68673607 1.70673643 100.01191592 1.75713307 C95.94737856 1.78370335 91.88284692 1.80855567 87.81827545 1.82932854 C83.9934123 1.84893013 80.16860506 1.87308443 76.34379196 1.90074539 C74.93933249 1.91009717 73.53486077 1.91777916 72.13038254 1.92367363 C70.21372803 1.93196656 68.29710531 1.946832 66.38049316 1.96203613 C65.30752613 1.96848868 64.2345591 1.97494123 63.12907791 1.98158932 C60.68704952 2.10373375 58.70130972 2.49609254 56.35675049 3.12025452 C52.99457558 3.17682108 49.64950581 3.14280732 46.28839111 3.08119202 C43.41937525 3.04892567 40.73193107 3.03908564 37.91925049 3.64759827 C34.01896812 4.36701011 30.23534532 3.94663652 26.29425049 3.68275452 C2.3309958 1.06314932 2.3309958 1.06314932 -19.64324951 8.12025452 C-22.67286009 11.1498651 -24.17975171 14.16020165 -25.64324951 18.12025452 C-25.85852295 18.7016217 -26.07379639 19.28298889 -26.29559326 19.88197327 C-27.59762162 23.57691862 -28.70018804 27.26920038 -29.58465576 31.08509827 C-29.83239746 32.1421698 -29.83239746 32.1421698 -30.08514404 33.22059631 C-30.40936618 34.62688989 -30.72203223 36.03591046 -31.02166748 37.44764709 C-32.05114578 41.91144322 -33.53019486 44.76673427 -36.64324951 48.12025452 C-35.98677211 41.08656809 -34.32711048 34.48513142 -32.45574951 27.68275452 C-32.17666748 26.60187561 -31.89758545 25.5209967 -31.61004639 24.40736389 C-29.44700942 16.53352733 -26.78956358 9.17154796 -20.01043701 4.18275452 C-18.7768042 3.65681702 -18.7768042 3.65681702 -17.51824951 3.12025452 C-16.69067139 2.74900452 -15.86309326 2.37775452 -15.01043701 1.99525452 C-9.96937227 0.13189065 -5.34373341 -0.01886944 0 0 Z " fill="#23F4ED" transform="translate(408.64324951171875,262.87974548339844)"/>
<path d="M0 0 C28.44615125 -1.07269006 57.61446024 5.66765598 80 24 C81.07121094 24.84498047 81.07121094 24.84498047 82.1640625 25.70703125 C94.73563201 36.0700818 106.70291806 53.86964882 110.4375 69.875 C110.98516536 72.23523497 110.98516536 72.23523497 112.5625 75.125 C114.58911588 79.640615 114.26376932 84.14469074 114 89 C113.34 88.67 112.68 88.34 112 88 C111.34912109 86.02905273 111.34912109 86.02905273 110.7734375 83.43359375 C110.43904663 82.00418457 110.43904663 82.00418457 110.09790039 80.54589844 C109.85934326 79.52012695 109.62078613 78.49435547 109.375 77.4375 C106.81612136 67.0673498 103.32974594 58.22213914 98 49 C97.20335937 47.53240234 97.20335937 47.53240234 96.390625 46.03515625 C84.16171448 24.93725864 62.29138894 12.62673798 39.421875 6.2890625 C30.43529347 4.00754679 21.2058281 2.97445513 12 2 C12.69322497 5.96725133 14.29156435 7.12426903 17.4375 9.58203125 C21.3100361 13.09635776 23.37443708 17.83910592 24 23 C24.66 23 25.32 23 26 23 C26.144375 24.051875 26.28875 25.10375 26.4375 26.1875 C26.88933697 29.73789582 26.88933697 29.73789582 27.5546875 32.10546875 C28.2257955 36.46767078 27.91767622 40.72958007 27.6875 45.125 C27.65205078 46.03121094 27.61660156 46.93742187 27.58007812 47.87109375 C27.53689453 48.74121094 27.49371094 49.61132812 27.44921875 50.5078125 C27.41143311 51.29816895 27.37364746 52.08852539 27.3347168 52.90283203 C27 55 27 55 25 58 C24.608125 59.258125 24.21625 60.51625 23.8125 61.8125 C19.54137556 74.70962087 13.55588154 84.42873924 3 93 C0.1328125 94.328125 0.1328125 94.328125 -2 95 C-1.319375 94.319375 -0.63875 93.63875 0.0625 92.9375 C0.52140625 92.47214844 0.9803125 92.00679688 1.453125 91.52734375 C2.4796357 90.51379405 3.53219534 89.52593279 4.609375 88.56640625 C17.30441982 76.89045907 23.7523318 59.70748977 25.2890625 42.82421875 C25.63230066 30.79528157 22.0629555 18.8335768 13.9921875 9.73828125 C10.50261507 6.69345825 6.46992377 4.58343796 2.4140625 2.3828125 C1.61742187 1.92648437 0.82078125 1.47015625 0 1 C0 0.67 0 0.34 0 0 Z " fill="#0074FB" transform="translate(616,365)"/>
<path d="M0 0 C0 0.33 0 0.66 0 1 C-9.95068867 3.06170091 -18.9790201 2.95192877 -29 2 C-29 2.66 -29 3.32 -29 4 C-29.969375 4.02578125 -30.93875 4.0515625 -31.9375 4.078125 C-46.6285518 4.63320252 -59.57883357 7.86572597 -73 14 C-73.83402344 14.36351562 -74.66804688 14.72703125 -75.52734375 15.1015625 C-88.46131782 20.01197547 -88.46131782 20.01197547 -98 29 C-98.969375 29.53625 -99.93875 30.0725 -100.9375 30.625 C-112.50510876 37.03825332 -120.55644035 46.22553767 -127.32421875 57.38671875 C-129 60 -129 60 -131.14453125 62.6640625 C-133.12386551 64.90824442 -133.12386551 64.90824442 -134 67.6875 C-135 70 -135 70 -137.0625 70.875 C-137.701875 71.24625 -138.34125 71.6175 -139 72 C-139.74751373 75.48254713 -139.74751373 75.48254713 -140 79 C-140.495 79.99 -140.495 79.99 -141 81 C-141.66 81 -142.32 81 -143 81 C-143 82.32 -143 83.64 -143 85 C-143.66 85 -144.32 85 -145 85 C-144.79375 85.556875 -144.5875 86.11375 -144.375 86.6875 C-143.89304789 89.659538 -144.73434972 91.31979941 -146 94 C-146.33 94 -146.66 94 -147 94 C-147.43701238 87.96922911 -146.0933916 83.87562396 -143.5625 78.4375 C-143.20414062 77.65246094 -142.84578125 76.86742187 -142.4765625 76.05859375 C-137.12712272 64.65632764 -130.12814953 54.60905462 -122 45 C-121.17435547 43.97326172 -121.17435547 43.97326172 -120.33203125 42.92578125 C-100.38214408 18.8058464 -66.64911832 4.00252177 -36 1 C-34.88367188 0.89042969 -33.76734375 0.78085937 -32.6171875 0.66796875 C-21.75568257 -0.21174277 -10.88880814 -0.10226449 0 0 Z M-148 94 C-146.39919849 98.00200378 -147.70720308 101.04556236 -149 105 C-149.33 105 -149.66 105 -150 105 C-149.125 97.375 -149.125 97.375 -148 94 Z " fill="#0CE7F4" transform="translate(459,467)"/>
<path d="M0 0 C0.33 0.66 0.66 1.32 1 2 C-0.19410639 4.20096216 -1.43014442 6.23297094 -2.8125 8.3125 C-3.42992065 9.25138062 -3.42992065 9.25138062 -4.05981445 10.20922852 C-33.19463187 53.9472468 -74.60237823 79.14770231 -125.51953125 89.7421875 C-141.72802114 92.96558671 -157.49816597 93.2731396 -174 93 C-174 92.67 -174 92.34 -174 92 C-173.19892822 91.94465088 -172.39785645 91.88930176 -171.57250977 91.83227539 C-167.90237068 91.5775997 -164.23243695 91.32007148 -160.5625 91.0625 C-159.30244141 90.97548828 -158.04238281 90.88847656 -156.74414062 90.79882812 C-150.14084896 90.33332192 -143.5718519 89.79557515 -137 89 C-136.32267822 88.9182251 -135.64535645 88.8364502 -134.94750977 88.75219727 C-131.68898374 88.55438505 -131.68898374 88.55438505 -129 87 C-126.92382596 86.6246465 -124.83843889 86.2996863 -122.75 86 C-116.83174871 85.22041293 -116.83174871 85.22041293 -111 84 C-110.67 83.34 -110.34 82.68 -110 82 C-107.27734375 81.5859375 -107.27734375 81.5859375 -103.9375 81.375 C-102.28041016 81.26285156 -102.28041016 81.26285156 -100.58984375 81.1484375 C-99.73519531 81.09945312 -98.88054687 81.05046875 -98 81 C-98 80.34 -98 79.68 -98 79 C-97.24074219 78.80664062 -96.48148438 78.61328125 -95.69921875 78.4140625 C-94.20841797 78.02347656 -94.20841797 78.02347656 -92.6875 77.625 C-91.70136719 77.36976563 -90.71523438 77.11453125 -89.69921875 76.8515625 C-86.8194184 76.08086826 -86.8194184 76.08086826 -84 74 C-82.68 74 -81.36 74 -80 74 C-79.67 73.34 -79.34 72.68 -79 72 C-77.40224911 71.21291607 -75.77005369 70.49522058 -74.125 69.8125 C-68.91089012 67.52370891 -64.26664853 64.76750711 -59.51953125 61.63671875 C-57.36333286 60.23602554 -55.19762214 58.97130824 -52.9375 57.75 C-49.79985583 56.16661078 -49.79985583 56.16661078 -48 53 C-47.01 53 -46.02 53 -45 53 C-45 52.34 -45 51.68 -45 51 C-43.50390625 49.78125 -43.50390625 49.78125 -41.5625 48.5 C-38.77468153 46.7134637 -38.77468153 46.7134637 -37 44 C-36.01 43.67 -35.02 43.34 -34 43 C-33.690625 42.360625 -33.38125 41.72125 -33.0625 41.0625 C-32 39 -32 39 -30.125 38.125 C-27.03809511 36.49075623 -25.86883877 33.89368584 -24 31 C-23.01 30.34 -22.02 29.68 -21 29 C-19.95107762 27.36368108 -18.95093297 25.69514137 -18 24 C-17.01 22.515 -17.01 22.515 -16 21 C-15.34 21 -14.68 21 -14 21 C-13.8453125 20.1028125 -13.8453125 20.1028125 -13.6875 19.1875 C-12.70725262 16.06853106 -10.77085868 14.68191345 -8.375 12.5625 C-6.857708 11.08985154 -6.857708 11.08985154 -6.5625 9.0625 C-5.78855042 6.22468487 -4.11668663 4.98840259 -2 3 C-1.34 2.01 -0.68 1.02 0 0 Z " fill="#0476EB" transform="translate(734,481)"/>
<path d="M0 0 C14.70831363 -0.023407 29.41662477 -0.0410174 44.12495327 -0.05181217 C50.95497194 -0.05695859 57.78497901 -0.06396964 64.61499023 -0.07543945 C71.2091119 -0.08650781 77.80322469 -0.0922884 84.39735603 -0.09487724 C86.91027071 -0.09672166 89.42318475 -0.10032333 91.93609428 -0.10573006 C95.46188647 -0.11301282 98.98762921 -0.11398789 102.51342773 -0.11352539 C103.54705444 -0.11712067 104.58068115 -0.12071594 105.64562988 -0.12442017 C111.51268397 -0.11611906 117.180845 0.24161265 123 1 C123 1.33 123 1.66 123 2 C95.50228397 3.05091366 68.03423451 3.04343545 40.5237999 2.71766281 C37.86798962 2.68742017 35.21216485 2.66100752 32.55630493 2.63552856 C28.32975887 2.594158 24.10347731 2.54207669 19.87716484 2.4814415 C18.29528222 2.46006913 16.7133527 2.44191073 15.13139534 2.4270668 C12.95306519 2.40566232 10.77527818 2.37187988 8.59716797 2.3347168 C6.75105423 2.31020699 6.75105423 2.31020699 4.86764526 2.28520203 C2 2 2 2 0 0 Z " fill="#029EF3" transform="translate(446,573)"/>
<path d="M0 0 C3.63 0 7.26 0 11 0 C11.33 1.65 11.66 3.3 12 5 C13.4580199 6.2312168 14.92139761 7.45824385 16.4375 8.6171875 C20.34122377 12.07198304 22.37795652 16.86814131 23 22 C23.66 22 24.32 22 25 22 C25.144375 23.051875 25.28875 24.10375 25.4375 25.1875 C25.88933697 28.73789582 25.88933697 28.73789582 26.5546875 31.10546875 C27.2257955 35.46767078 26.91767622 39.72958007 26.6875 44.125 C26.65205078 45.03121094 26.61660156 45.93742187 26.58007812 46.87109375 C26.53689453 47.74121094 26.49371094 48.61132812 26.44921875 49.5078125 C26.41143311 50.29816895 26.37364746 51.08852539 26.3347168 51.90283203 C26 54 26 54 24 57 C23.608125 58.258125 23.21625 59.51625 22.8125 60.8125 C18.54137556 73.70962087 12.55588154 83.42873924 2 92 C-0.8671875 93.328125 -0.8671875 93.328125 -3 94 C-2.319375 93.319375 -1.63875 92.63875 -0.9375 91.9375 C-0.47859375 91.47214844 -0.0196875 91.00679688 0.453125 90.52734375 C1.4796357 89.51379405 2.53219534 88.52593279 3.609375 87.56640625 C16.30441982 75.89045907 22.7523318 58.70748977 24.2890625 41.82421875 C24.63366141 29.74759346 21.03644721 17.79242128 12.92578125 8.67578125 C9.10388866 5.35003698 4.53256727 3.2017631 0 1 C0 0.67 0 0.34 0 0 Z " fill="#047FF5" transform="translate(617,366)"/>
<path d="M0 0 C1.32 0.33 2.64 0.66 4 1 C-15.21645872 11.91185847 -37.81661345 16.2350038 -59.7265625 16.09765625 C-60.60025482 16.0962413 -61.47394714 16.09482635 -62.37411499 16.09336853 C-65.12444703 16.08783674 -67.87469318 16.07529774 -70.625 16.0625 C-72.50650923 16.05747616 -74.38801975 16.05291481 -76.26953125 16.04882812 C-80.84638652 16.03788979 -85.42317877 16.02067362 -90 16 C-91.60031344 12.79937313 -90.03173691 10.27728194 -89 7 C-88.67 7 -88.34 7 -88 7 C-88 9.31 -88 11.62 -88 14 C-82.36606031 13.92994827 -76.73278237 13.8414584 -71.09936523 13.73754883 C-69.19221491 13.70476893 -67.28497846 13.67659979 -65.37768555 13.65356445 C-45.27301458 13.40444251 -24.80403219 11.64111803 -6.203125 3.34375 C-3 2 -3 2 0 2 C0 1.34 0 0.68 0 0 Z " fill="#0477E5" transform="translate(352,744)"/>
<path d="M0 0 C11.28379281 -0.02324295 22.56757985 -0.04097577 33.85139179 -0.05181217 C39.0917731 -0.05701495 44.33213793 -0.06406494 49.57250977 -0.07543945 C54.63645272 -0.08636135 59.7003799 -0.09229643 64.76433372 -0.09487724 C66.68946773 -0.0967148 68.61460094 -0.10030289 70.53972816 -0.10573006 C89.90085759 -0.1581055 89.90085759 -0.1581055 99 1 C95.37746766 2.95868087 92.89525368 3.24568025 88.74609375 3.23046875 C87.44075684 3.22926025 86.13541992 3.22805176 84.79052734 3.22680664 C83.33951346 3.2142433 81.88850432 3.20112304 80.4375 3.1875 C78.92138856 3.17988125 77.40527514 3.17264924 75.88916016 3.16577148 C61.55006165 3.0806543 47.21178435 2.82278315 32.875 2.5625 C31.75527802 2.54303314 30.63555603 2.52356628 29.48190308 2.50350952 C26.25605156 2.44591295 23.0303814 2.38218794 19.8046875 2.31640625 C18.84654648 2.29967865 17.88840546 2.28295105 16.90122986 2.26571655 C11.20863957 2.14084736 5.65037843 1.70945323 0 1 C0 0.67 0 0.34 0 0 Z " fill="#06F7F9" transform="translate(544,265)"/>
<path d="M0 0 C22.44 0 44.88 0 68 0 C68.495 0.99 68.495 0.99 69 2 C68.13048706 1.99214478 68.13048706 1.99214478 67.2434082 1.98413086 C64.5997833 1.96325666 61.95617579 1.95030673 59.3125 1.9375 C58.40048828 1.92912109 57.48847656 1.92074219 56.54882812 1.91210938 C55.21948242 1.90727539 55.21948242 1.90727539 53.86328125 1.90234375 C53.05157471 1.89710693 52.23986816 1.89187012 51.40356445 1.88647461 C48.96311151 1.9405327 48.96311151 1.9405327 46.46923828 2.51367188 C44.04841124 2.99046518 42.08135598 3.03886646 39.62890625 2.87890625 C38.81405762 2.83056641 37.99920898 2.78222656 37.15966797 2.73242188 C36.30260254 2.67634766 35.44553711 2.62027344 34.5625 2.5625 C28.48764061 2.20534986 22.46069535 1.93974559 16.375 2 C10.85120126 2.05235828 5.4768553 1.70669101 0 1 C0 0.67 0 0.34 0 0 Z " fill="#0FF9F5" transform="translate(400,264)"/>
<path d="M0 0 C1.98 0.66 3.96 1.32 6 2 C6 2.66 6 3.32 6 4 C6.55429687 4.25910156 7.10859375 4.51820313 7.6796875 4.78515625 C25.00841408 13.8579407 36.35675622 30.43449804 44.3203125 47.79296875 C45 50 45 50 44 53 C43.50371094 51.97261719 43.00742187 50.94523437 42.49609375 49.88671875 C32.01440525 28.40601635 20.23118139 13.67350179 -1 2 C-0.67 1.34 -0.34 0.68 0 0 Z " fill="#00C2FE" transform="translate(680,377)"/>
<path d="M0 0 C1.66578962 0.02435367 3.33158681 0.04819442 4.99739075 0.07154846 C9.34568011 0.13386822 13.69383252 0.20307749 18.04199219 0.27380371 C22.49342706 0.34496305 26.94495772 0.40949343 31.39648438 0.47460938 C40.10427287 0.60294823 48.81192775 0.73857772 57.51953125 0.87890625 C57.51953125 1.20890625 57.51953125 1.53890625 57.51953125 1.87890625 C47.48785005 2.0331175 37.45609931 2.18129461 27.42421722 2.32186985 C22.7655094 2.38733908 18.10685017 2.45484933 13.44824219 2.52709961 C8.94847033 2.59681014 4.44864997 2.66106054 -0.05125427 2.72160149 C-1.76398017 2.74558926 -3.47668017 2.77151047 -5.18934631 2.79944038 C-7.59689286 2.83836479 -10.00444159 2.87027598 -12.41210938 2.90063477 C-13.11270477 2.91358078 -13.81330017 2.92652679 -14.53512573 2.93986511 C-19.28625147 2.98998565 -23.78928205 2.54807241 -28.48046875 1.87890625 C-28.48046875 1.54890625 -28.48046875 1.21890625 -28.48046875 0.87890625 C-18.97919305 -0.30368583 -9.54786915 -0.16371479 0 0 Z " fill="#01C1F2" transform="translate(479.48046875,467.12109375)"/>
<path d="M0 0 C0.66 0.33 1.32 0.66 2 1 C2.25 8.625 2.25 8.625 0 12 C-0.391875 13.258125 -0.78375 14.51625 -1.1875 15.8125 C-5.45862444 28.70962087 -11.44411846 38.42873924 -22 47 C-24.8671875 48.328125 -24.8671875 48.328125 -27 49 C-25.9790625 47.9790625 -25.9790625 47.9790625 -24.9375 46.9375 C-24.47859375 46.47214844 -24.0196875 46.00679688 -23.546875 45.52734375 C-22.5203643 44.51379405 -21.46780466 43.52593279 -20.390625 42.56640625 C-8.02548606 31.19388167 -3.04254882 15.99643093 0 0 Z " fill="#0289F3" transform="translate(641,411)"/>
<path d="M0 0 C1 2 1 2 0.22265625 4.6015625 C-0.16019531 5.59929688 -0.54304688 6.59703125 -0.9375 7.625 C-1.31777344 8.62789062 -1.69804687 9.63078125 -2.08984375 10.6640625 C-2.39019531 11.43492187 -2.69054687 12.20578125 -3 13 C-3.66 13 -4.32 13 -5 13 C-5 14.32 -5 15.64 -5 17 C-5.66 17 -6.32 17 -7 17 C-6.79375 17.556875 -6.5875 18.11375 -6.375 18.6875 C-5.89304789 21.659538 -6.73434972 23.31979941 -8 26 C-8.33 26 -8.66 26 -9 26 C-9.53701187 19.6410975 -7.76397282 15.32349138 -5.0625 9.625 C-4.68931641 8.80644531 -4.31613281 7.98789062 -3.93164062 7.14453125 C-1.19254032 1.19254032 -1.19254032 1.19254032 0 0 Z M-10 26 C-8.39919849 30.00200378 -9.70720308 33.04556236 -11 37 C-11.33 37 -11.66 37 -12 37 C-11.125 29.375 -11.125 29.375 -10 26 Z " fill="#07D9F4" transform="translate(321,535)"/>
<path d="M0 0 C1.23795226 3.71385679 0.63133684 4.41017976 -1.01953125 7.8515625 C-1.46490234 8.78484375 -1.91027344 9.718125 -2.36914062 10.6796875 C-2.84544922 11.65164063 -3.32175781 12.62359375 -3.8125 13.625 C-4.27720703 14.6046875 -4.74191406 15.584375 -5.22070312 16.59375 C-8.73058107 23.86529054 -8.73058107 23.86529054 -11 25 C-11.08886184 21.80097361 -10.91058531 19.07322544 -10 16 C-9.01 16 -8.02 16 -7 16 C-7.0825 15.34 -7.165 14.68 -7.25 14 C-6.78815487 8.45785844 -4.05945076 3.74539583 0 0 Z " fill="#048DEE" transform="translate(746,456)"/>
<path d="M0 0 C2 2 2 2 2.23046875 4.96875 C2.21628906 6.1340625 2.20210937 7.299375 2.1875 8.5 C2.17783203 10.24796875 2.17783203 10.24796875 2.16796875 12.03125 C2 15 2 15 1 17 C1.99 17.33 2.98 17.66 4 18 C2.68775452 21.93673644 1.08089673 24.22719294 -2 27 C-1.75443359 26.15417358 -1.75443359 26.15417358 -1.50390625 25.29125977 C-0.97489074 22.88582828 -0.90173265 20.799594 -0.9375 18.33984375 C-0.94523438 17.46392578 -0.95296875 16.58800781 -0.9609375 15.68554688 C-0.97382812 14.77869141 -0.98671875 13.87183594 -1 12.9375 C-1.02552477 11.13417488 -1.04655216 9.33077899 -1.0625 7.52734375 C-1.07410156 6.73062256 -1.08570313 5.93390137 -1.09765625 5.11303711 C-1 3 -1 3 0 0 Z " fill="#009BFD" transform="translate(731,461)"/>
<path d="M0 0 C0 4.05225881 -2.05602635 5.9322881 -4.5 8.9375 C-9.36898882 15.07571034 -13.75087438 21.41266838 -18 28 C-18.66 27.67 -19.32 27.34 -20 27 C-7.20229008 7.20229008 -7.20229008 7.20229008 0 0 Z " fill="#007DFD" transform="translate(330,646)"/>
<path d="M0 0 C0.1546875 0.7734375 0.1546875 0.7734375 0.3125 1.5625 C0.96930494 4.18290575 0.96930494 4.18290575 2.5625 7.125 C4.58911588 11.640615 4.26376932 16.14469074 4 21 C3.34 20.67 2.68 20.34 2 20 C1.14005509 17.20223402 0.41005574 14.46974727 -0.25 11.625 C-0.44851563 10.84382813 -0.64703125 10.06265625 -0.8515625 9.2578125 C-1.02945313 8.505 -1.20734375 7.7521875 -1.390625 6.9765625 C-1.55594727 6.28643066 -1.72126953 5.59629883 -1.89160156 4.88525391 C-2 3 -2 3 0 0 Z " fill="#0091FD" transform="translate(726,433)"/>
<path d="M0 0 C2.20644747 2.04498098 3.65854534 3.9332361 5.0078125 6.6171875 C5.35457031 7.30683594 5.70132813 7.99648438 6.05859375 8.70703125 C6.41050781 9.42246094 6.76242187 10.13789063 7.125 10.875 C7.48464844 11.58269531 7.84429688 12.29039062 8.21484375 13.01953125 C10.02484087 16.65986253 11.47192192 19.91939663 12 24 C8.44237903 21.76733663 7.3855936 20.11096232 6.375 16.0625 C4.75171827 9.50876084 4.75171827 9.50876084 0 5 C-0.1875 2.375 -0.1875 2.375 0 0 Z " fill="#04B5EF" transform="translate(738,321)"/>
<path d="M0 0 C0.33 0 0.66 0 1 0 C0.28757225 17.71242775 0.28757225 17.71242775 -5 23 C-4.354523 15.09290669 -2.13002861 7.60866033 0 0 Z " fill="#1BF3EB" transform="translate(377,288)"/>
<path d="M0 0 C0.66 0.33 1.32 0.66 2 1 C-0.22827893 2.9177069 -2.45758905 4.83419239 -4.6875 6.75 C-5.31333984 7.28882813 -5.93917969 7.82765625 -6.58398438 8.3828125 C-16.61985518 17 -16.61985518 17 -19 17 C-19 16.34 -19 15.68 -19 15 C-17.3828125 13.5546875 -17.3828125 13.5546875 -15.125 11.875 C-11.52024773 9.15281029 -7.95958147 6.39121878 -4.4375 3.5625 C-3.59058594 2.88316406 -2.74367188 2.20382812 -1.87109375 1.50390625 C-1.25363281 1.00761719 -0.63617188 0.51132812 0 0 Z " fill="#00D1FD" transform="translate(374,601)"/>
<path d="M0 0 C0.33 0 0.66 0 1 0 C0.979375 1.11375 0.95875 2.2275 0.9375 3.375 C0.73619282 6.83215921 0.73619282 6.83215921 2 9 C1.01 9.495 1.01 9.495 0 10 C-0.7513123 12.81448632 -1.40772033 15.58946769 -2 18.4375 C-2.32655762 20.00012925 -2.65961064 21.56141906 -3 23.12109375 C-3.144375 23.8164624 -3.28875 24.51183105 -3.4375 25.22827148 C-4 27 -4 27 -6 29 C-5.40390686 22.26483263 -4.14905977 15.97211055 -2.4375 9.4375 C-2.20353516 8.52419922 -1.96957031 7.61089844 -1.72851562 6.66992188 C-1.15776375 4.44515436 -0.58152522 2.22197103 0 0 Z " fill="#00D6FD" transform="translate(302,597)"/>
<path d="M0 0 C1 3 1 3 -0.1328125 5.36328125 C-2.17614436 8.24873942 -4.38069235 10.68182013 -6.875 13.1875 C-7.71804688 14.04730469 -8.56109375 14.90710938 -9.4296875 15.79296875 C-11.92634863 17.93675832 -13.89192976 19.00296671 -17 20 C-15.9790625 18.9790625 -15.9790625 18.9790625 -14.9375 17.9375 C-14.48246094 17.47859375 -14.02742187 17.0196875 -13.55859375 16.546875 C-12.48276435 15.47913455 -11.39039783 14.42789045 -10.28515625 13.390625 C-6.0236961 9.32498687 -2.89044151 5.12820267 0 0 Z " fill="#039BF3" transform="translate(631,440)"/>
<path d="M0 0 C-0.33 0.66 -0.66 1.32 -1 2 C-4.06255961 2.0270491 -7.1248786 2.04686298 -10.1875 2.0625 C-11.48397461 2.07506836 -11.48397461 2.07506836 -12.80664062 2.08789062 C-17.00286769 2.10396812 -20.90936886 2.07559038 -25 1 C-25 0.67 -25 0.34 -25 0 C-7.21409574 -1.86170213 -7.21409574 -1.86170213 0 0 Z " fill="#04D1F4" transform="translate(476,468)"/>
<path d="M0 0 C0 3.7185142 -0.85912168 4.31804606 -3.3125 7 C-3.92738281 7.680625 -4.54226563 8.36125 -5.17578125 9.0625 C-6.75544728 10.74026092 -8.35810926 12.38336911 -10 14 C-10.66 13.67 -11.32 13.34 -12 13 C-10.18777319 11.02058257 -8.37523172 9.04145495 -6.5625 7.0625 C-6.04623047 6.49853516 -5.52996094 5.93457031 -4.99804688 5.35351562 C-1.11328125 1.11328125 -1.11328125 1.11328125 0 0 Z " fill="#007CFD" transform="translate(343,631)"/>
<path d="M0 0 C5.32732146 3.9320706 8.5475182 8.38053494 12 14 C11.67 14.66 11.34 15.32 11 16 C7.16326867 12.26423528 4.33305954 8.81193531 2 4 C1.62875 3.2575 1.2575 2.515 0.875 1.75 C0.58625 1.1725 0.2975 0.595 0 0 Z " fill="#03BAEF" transform="translate(726,305)"/>
<path d="M0 0 C0.33 0.66 0.66 1.32 1 2 C-0.3649453 4.44268953 -1.77020178 6.73629683 -3.3125 9.0625 C-3.93801758 10.03799805 -3.93801758 10.03799805 -4.57617188 11.03320312 C-7.72800434 15.86400217 -7.72800434 15.86400217 -10 17 C-9.33333333 15.33333333 -8.66666667 13.66666667 -8 12 C-7.71125 11.154375 -7.4225 10.30875 -7.125 9.4375 C-5.83440078 6.64120168 -4.23308243 5.09351478 -2 3 C-1.34 2.01 -0.68 1.02 0 0 Z " fill="#0574E4" transform="translate(734,481)"/>
<path d="M0 0 C2.2233881 2.2233881 2.3605016 2.92305521 2.8515625 5.9140625 C2.98046875 6.67460937 3.109375 7.43515625 3.2421875 8.21875 C3.36851562 9.0128125 3.49484375 9.806875 3.625 10.625 C3.7590625 11.42679687 3.893125 12.22859375 4.03125 13.0546875 C4.36134789 15.03527484 4.68161083 17.01749675 5 19 C4.34 19.33 3.68 19.66 3 20 C-0.44419134 6.3667426 -0.44419134 6.3667426 0 0 Z " fill="#02BCF5" transform="translate(750,345)"/>
<path d="M0 0 C0 0.66 0 1.32 0 2 C2.64 2 5.28 2 8 2 C8.33 1.34 8.66 0.68 9 0 C9.99 0.66 10.98 1.32 12 2 C9.1805932 3.4097034 6.76732774 3.16984647 3.625 3.1875 C2.48289062 3.20167969 1.34078125 3.21585937 0.1640625 3.23046875 C-2.83936816 3.01170034 -4.47925934 2.57080637 -7 1 C-2.25 0 -2.25 0 0 0 Z " fill="#00CEFC" transform="translate(616,362)"/>
<path d="M0 0 C0.66 0.33 1.32 0.66 2 1 C2.125 6.75 2.125 6.75 1 9 C0.34 9 -0.32 9 -1 9 C-1.33 10.32 -1.66 11.64 -2 13 C-3.45047396 10.09905209 -2.45356803 8.44027404 -1.5625 5.375 C-1.27503906 4.37210937 -0.98757813 3.36921875 -0.69140625 2.3359375 C-0.46324219 1.56507813 -0.23507812 0.79421875 0 0 Z " fill="#18F0EF" transform="translate(371,311)"/>
<path d="M0 0 C0.33 0 0.66 0 1 0 C1.103125 1.11375 1.20625 2.2275 1.3125 3.375 C1.539375 4.57125 1.76625 5.7675 2 7 C2.99 7.66 3.98 8.32 5 9 C3.02 9 1.04 9 -1 9 C-2.60031344 5.79937313 -1.03173691 3.27728194 0 0 Z " fill="#0D7FD9" transform="translate(263,751)"/>
<path d="M0 0 C1.29409592 0.45142881 2.58521059 0.91141021 3.875 1.375 C4.95394531 1.75785156 4.95394531 1.75785156 6.0546875 2.1484375 C8 3 8 3 10 5 C9.01 5.495 9.01 5.495 8 6 C5.8359375 5.22265625 5.8359375 5.22265625 3.375 4.0625 C2.55773437 3.68222656 1.74046875 3.30195313 0.8984375 2.91015625 C0.27195312 2.60980469 -0.35453125 2.30945313 -1 2 C-0.67 1.34 -0.34 0.68 0 0 Z " fill="#00CEFE" transform="translate(669,372)"/>
<path d="M0 0 C2.31 0.33 4.62 0.66 7 1 C7 1.99 7 2.98 7 4 C4.03 3.67 1.06 3.34 -2 3 C-1.34 2.67 -0.68 2.34 0 2 C0 1.34 0 0.68 0 0 Z " fill="#00CCFE" transform="translate(643,364)"/>
<path d="M0 0 C2 1 2 1 2 1 Z " fill="#0A93EA" transform="translate(580,575)"/>
<path d="M0 0 C2 1 2 1 2 1 Z " fill="#0997E9" transform="translate(576,575)"/>
<path d="M0 0 C2 1 2 1 2 1 Z " fill="#1CEDF1" transform="translate(362,488)"/>
<path d="" fill="#525457" transform="translate(0,0)"/>
<path d="" fill="#4F5659" transform="translate(0,0)"/>
<path d="" fill="#525759" transform="translate(0,0)"/>
<path d="" fill="#4E575B" transform="translate(0,0)"/>
<path d="" fill="#545656" transform="translate(0,0)"/>
<path d="" fill="#4E5556" transform="translate(0,0)"/>
<path d="" fill="#4A5A61" transform="translate(0,0)"/>
<path d="" fill="#555557" transform="translate(0,0)"/>
<path d="" fill="#4D5154" transform="translate(0,0)"/>
<path d="" fill="#0DACED" transform="translate(0,0)"/>
<path d="" fill="#0AABEF" transform="translate(0,0)"/>
<path d="" fill="#555C5C" transform="translate(0,0)"/>
<path d="" fill="#0AB0ED" transform="translate(0,0)"/>
<path d="" fill="#0DB8F0" transform="translate(0,0)"/>
<path d="" fill="#11D0EE" transform="translate(0,0)"/>
<path d="" fill="#0996ED" transform="translate(0,0)"/>
<path d="" fill="#0E8CE8" transform="translate(0,0)"/>
<path d="" fill="#10D6ED" transform="translate(0,0)"/>
<path d="" fill="#0D87E7" transform="translate(0,0)"/>
<path d="" fill="#0D8AEA" transform="translate(0,0)"/>
<path d="" fill="#1EF1F1" transform="translate(0,0)"/>
<path d="" fill="#1BEDEF" transform="translate(0,0)"/>
<path d="" fill="#1EF3F3" transform="translate(0,0)"/>
<path d="" fill="#1BEFF8" transform="translate(0,0)"/>
<path d="" fill="#09C6FA" transform="translate(0,0)"/>
<path d="" fill="#07C7F8" transform="translate(0,0)"/>
<path d="" fill="#0ADFF8" transform="translate(0,0)"/>
<path d="" fill="#24E3E4" transform="translate(0,0)"/>
<path d="" fill="#4E6566" transform="translate(0,0)"/>
<path d="" fill="#25EDE8" transform="translate(0,0)"/>
<path d="" fill="#0DC6ED" transform="translate(0,0)"/>
<path d="" fill="#2DF4E8" transform="translate(0,0)"/>
<path d="" fill="#0AC7EF" transform="translate(0,0)"/>
<path d="" fill="#2DF5E8" transform="translate(0,0)"/>
<path d="" fill="#3AF5E1" transform="translate(0,0)"/>
<path d="" fill="#40F0DB" transform="translate(0,0)"/>
<path d="" fill="#40F2DC" transform="translate(0,0)"/>
<path d="" fill="#43F4DB" transform="translate(0,0)"/>
<path d="" fill="#0FE5F0" transform="translate(0,0)"/>
<path d="" fill="#3DECD8" transform="translate(0,0)"/>
<path d="" fill="#565A5A" transform="translate(0,0)"/>
</svg>
